<mxfile host="65bd71144e">
    <diagram id="6ObwSw7GGpYElaVP92g4" name="Page-1">
        <mxGraphModel dx="684" dy="583" grid="1" gridSize="10" guides="1" tooltips="1" connect="1" arrows="1" fold="1" page="1" pageScale="1" pageWidth="827" pageHeight="1169" background="#FFFDFD" math="0" shadow="0">
            <root>
                <mxCell id="0"/>
                <mxCell id="1" parent="0"/>
                <mxCell id="88" value="moov" style="rounded=0;whiteSpace=wrap;html=1;strokeColor=#2D2926;fillColor=none;strokeWidth=4;fontFamily=Hack;labelBackgroundColor=none;labelPosition=center;verticalLabelPosition=bottom;align=center;verticalAlign=top;fontSize=27;fontStyle=0" parent="1" vertex="1">
                    <mxGeometry x="120" y="40" width="240" height="105" as="geometry"/>
                </mxCell>
                <mxCell id="92" value="ftyp" style="rounded=0;whiteSpace=wrap;html=1;strokeColor=#2D2926;fillColor=none;strokeWidth=4;fontFamily=Hack;labelBackgroundColor=none;labelPosition=center;verticalLabelPosition=bottom;align=center;verticalAlign=top;fontSize=27;fontStyle=0" parent="1" vertex="1">
                    <mxGeometry x="40" y="40" width="80" height="105" as="geometry"/>
                </mxCell>
            </root>
        </mxGraphModel>
    </diagram>
</mxfile>
